<svg version="1.1" id="flower" xmlns="http://www.w3.org/2000/svg" x="0" y="0" viewBox="0 0 201.2 199.1" xml:space="preserve"><style>.st0{fill:none;stroke:#fff;stroke-width:.5;stroke-miterlimit:10}</style><g id="layer1" transform="translate(-175.822 -110.341)"><g id="g3739" transform="rotate(30 276.412 209.913)"><g id="g5342" transform="translate(45.524 16.155) scale(.39348)"><g id="g5344"><path id="path5346" class="st0" d="M802.9 492.4c0 119.4-96.8 216.1-216.1 216.1-119.4 0-216.1-96.8-216.1-216.1s96.8-216.1 216.1-216.1 216.1 96.8 216.1 216.1z"/></g></g><g id="g5366" transform="translate(45.524 16.155) scale(.39348)"><g id="g5368"><path id="path5370" class="st0" d="M622.8 305.3a72.1 72.1 0 0036 62.4c22.3 12.9 49.8 12.9 72 0"/></g></g><g id="g5372" transform="translate(45.524 16.155) scale(.39348)"><g id="g5374"><path id="path5376" class="st0" d="M550.8 305.3c0 39.8 32.3 72 72 72 39.8 0 72-32.3 72-72"/></g></g><g id="g5378" transform="translate(45.524 16.155) scale(.39348)"><g id="g5380"><path id="path5382" class="st0" d="M478.7 305.3a72.1 72.1 0 0036 62.4c22.3 12.9 49.8 12.9 72 0a72.1 72.1 0 0036-62.4"/></g></g><g id="g5384" transform="translate(45.524 16.155) scale(.39348)"><g id="g5386"><path id="path5388" class="st0" d="M442.7 367.6c22.3 12.9 49.8 12.9 72 0a72.1 72.1 0 0036-62.4"/></g></g><g id="g5456" transform="translate(45.524 16.155) scale(.39348)"><g id="g5458"><path id="path5460" class="st0" d="M622.8 305.3c22.3 12.9 49.8 12.9 72 0"/></g></g><g id="g5462" transform="translate(45.524 16.155) scale(.39348)"><g id="g5464"><path id="path5466" class="st0" d="M550.8 305.3c22.3 12.9 49.8 12.9 72 0"/></g></g><g id="g5468" transform="translate(45.524 16.155) scale(.39348)"><g id="g5470"><path id="path5472" class="st0" d="M478.7 305.3c22.3 12.9 49.8 12.9 72 0"/></g></g><g id="g5474" transform="translate(45.524 16.155) scale(.39348)"><g id="g5476"><path id="path5478" class="st0" d="M442.7 367.6a72.1 72.1 0 0036-62.4"/></g></g><g id="g5558" transform="translate(45.524 16.155) scale(.39348)"><g id="g5560"><path id="path5562" class="st0" d="M694.8 305.3a72.1 72.1 0 0036 62.4"/></g></g><g id="g5282" transform="translate(45.524 16.155) scale(.39348)"><g id="g5284"><path id="path5286" class="st0" d="M658.8 367.6c0 39.8-32.3 72-72 72s-72-32.3-72-72c0-39.8 32.3-72 72-72 39.8 0 72 32.3 72 72z"/></g></g><g id="g5288" transform="translate(45.524 16.155) scale(.39348)"><g id="g5290"><path id="path5292" class="st0" d="M730.9 367.6c0 39.8-32.3 72-72 72-39.8 0-72-32.3-72-72s32.3-72 72-72 72 32.3 72 72z"/></g></g><g id="g5330" transform="translate(45.524 16.155) scale(.39348)"><g id="g5332"><path id="path5334" class="st0" d="M586.8 367.6c0 39.8-32.3 72-72 72-39.8 0-72-32.3-72-72s32.3-72 72-72 72 32.3 72 72z"/></g></g><g id="g5360" transform="translate(45.524 16.155) scale(.39348)"><g id="g5362"><path id="path5364" class="st0" d="M694.8 305.3c-22.3 12.9-36 36.7-36 62.4s13.7 49.5 36 62.4c22.3 12.9 49.8 12.9 72 0"/></g></g><g id="g5390" transform="translate(45.524 16.155) scale(.39348)"><g id="g5392"><path id="path5394" class="st0" d="M406.7 430c22.3 12.9 49.8 12.9 72 0a72.1 72.1 0 0036-62.4 72.1 72.1 0 00-36-62.4"/></g></g><g id="g5246" transform="translate(45.524 16.155) scale(.39348)"><g id="g5248"><path id="path5250" class="st0" d="M694.8 430c0 39.8-32.3 72-72 72-39.8 0-72-32.3-72-72s32.3-72 72-72 72 32.2 72 72z"/></g></g><g id="g5252" transform="translate(45.524 16.155) scale(.39348)"><g id="g5254"><path id="path5256" class="st0" d="M766.9 430c0 39.8-32.3 72-72 72s-72-32.3-72-72 32.3-72 72-72 72 32.2 72 72z"/></g></g><g id="g5258" transform="translate(45.524 16.155) scale(.39348)"><g id="g5260"><path id="path5262" class="st0" d="M622.8 430c0 39.8-32.3 72-72 72s-72-32.3-72-72 32.3-72 72-72 72 32.2 72 72z"/></g></g><g id="g5312" transform="translate(45.524 16.155) scale(.39348)"><g id="g5314"><path id="path5316" class="st0" d="M550.8 430c0 39.8-32.3 72-72 72-39.8 0-72-32.3-72-72s32.3-72 72-72 72 32.2 72 72z"/></g></g><g id="g5396" transform="translate(45.524 16.155) scale(.39348)"><g id="g5398"><path id="path5400" class="st0" d="M370.7 492.4c34.5 19.9 78.5 8.1 98.4-26.4 19.9-34.5 8.1-78.5-26.4-98.4"/></g></g><g id="g5452" transform="translate(45.524 16.155) scale(.39348)"><path id="path5454" class="st0" d="M730.9 367.6c-34.5 19.9-46.3 64-26.4 98.4 19.9 34.5 64 46.3 98.4 26.4"/></g><g id="g5480" transform="translate(45.524 16.155) scale(.39348)"><g id="g5482"><path id="path5484" class="st0" d="M406.7 430a72.1 72.1 0 0036-62.4"/></g></g><g id="g5552" transform="translate(45.524 16.155) scale(.39348)"><g id="g5554"><path id="path5556" class="st0" d="M730.9 367.6a72.1 72.1 0 0036 62.4"/></g></g><g id="g5228" transform="translate(45.524 16.155) scale(.39348)"><g id="g5230"><path id="path5232" class="st0" d="M730.9 492.4c0 39.8-32.3 72-72 72-39.8 0-72-32.3-72-72s32.3-72 72-72 72 32.2 72 72z"/></g></g><g id="g5234" transform="translate(45.524 16.155) scale(.39348)"><g id="g5236"><path id="path5238" class="st0" d="M658.8 492.4c0 39.8-32.3 72-72 72-39.8 0-72-32.3-72-72s32.3-72 72-72 72 32.2 72 72z"/></g></g><g id="g5276" transform="translate(45.524 16.155) scale(.39348)"><g id="g5278"><path id="path5280" class="st0" d="M802.9 492.4c0 39.8-32.3 72-72 72s-72-32.3-72-72c0-39.8 32.3-72 72-72s72 32.2 72 72z"/></g></g><g id="g5306" transform="translate(45.524 16.155) scale(.39348)"><g id="g5308"><path id="path5310" class="st0" d="M586.8 492.4c0 39.8-32.3 72-72 72s-72-32.3-72-72c0-39.8 32.3-72 72-72s72 32.2 72 72z"/></g></g><g id="g5324" transform="translate(45.524 16.155) scale(.39348)"><g id="g5326"><path id="path5328" class="st0" d="M514.7 492.4c0 39.8-32.3 72-72 72s-72-32.3-72-72 32.3-72 72-72c39.8 0 72 32.2 72 72z"/></g></g><g id="g5348" transform="translate(45.524 16.155) scale(.39348)"><g id="g5350"><path id="path5352" class="st0" d="M406.7 554.8a72.1 72.1 0 0036-62.4 72.1 72.1 0 00-36-62.4"/></g></g><g id="g5354" transform="translate(45.524 16.155) scale(.39348)"><g id="g5356"><path id="path5358" class="st0" d="M766.9 430a72.1 72.1 0 00-36 62.4 72.1 72.1 0 0036 62.4"/></g></g><g id="g5486" transform="translate(45.524 16.155) scale(.39348)"><g id="g5488"><path id="path5490" class="st0" d="M370.7 492.4a72.1 72.1 0 0036-62.4"/></g></g><g id="g5546" transform="translate(45.524 16.155) scale(.39348)"><g id="g5548"><path id="path5550" class="st0" d="M766.9 430a72.1 72.1 0 0036 62.4"/></g></g><g id="g5240" transform="translate(45.524 16.155) scale(.39348)"><g id="g5242"><path id="path5244" class="st0" d="M694.8 554.8c0 39.8-32.3 72-72 72s-72-32.3-72-72 32.3-72 72-72c39.8 0 72 32.2 72 72z"/></g></g><g id="g5264" transform="translate(45.524 16.155) scale(.39348)"><g id="g5266"><path id="path5268" class="st0" d="M766.9 554.8c0 39.8-32.3 72-72 72-39.8 0-72-32.3-72-72 0-39.8 32.3-72 72-72s72 32.2 72 72z"/></g></g><g id="g5270" transform="translate(45.524 16.155) scale(.39348)"><g id="g5272"><path id="path5274" class="st0" d="M622.8 554.8c0 39.8-32.3 72-72 72s-72-32.3-72-72c0-39.8 32.3-72 72-72s72 32.2 72 72z"/></g></g><g id="g5318" transform="translate(45.524 16.155) scale(.39348)"><g id="g5320"><path id="path5322" class="st0" d="M550.8 554.8c0 39.8-32.3 72-72 72s-72-32.3-72-72 32.3-72 72-72 72 32.2 72 72z"/></g></g><g id="g5402" transform="translate(45.524 16.155) scale(.39348)"><g id="g5404"><path id="path5406" class="st0" d="M442.7 617.2c34.5-19.9 46.3-64 26.4-98.4-19.9-34.5-64-46.3-98.4-26.4"/></g></g><g id="g5444" transform="translate(45.524 16.155) scale(.39348)"><g id="g5446"><path id="path5448" class="st0" d="M802.9 492.4c-22.3-12.9-49.8-12.9-72 0-22.3 12.9-36 36.7-36 62.4s13.7 49.5 36 62.4"/></g></g><g id="g5492" transform="translate(45.524 16.155) scale(.39348)"><g id="g5494"><path id="path5496" class="st0" d="M406.7 554.8a72.1 72.1 0 00-36-62.4"/></g></g><g id="g5540" transform="translate(45.524 16.155) scale(.39348)"><g id="g5542"><path id="path5544" class="st0" d="M802.9 492.4a72.1 72.1 0 00-36 62.4"/></g></g><g id="g5294" transform="translate(45.524 16.155) scale(.39348)"><g id="g5296"><path id="path5298" class="st0" d="M658.8 617.2c0 39.8-32.3 72-72 72s-72-32.3-72-72 32.3-72 72-72c39.8 0 72 32.2 72 72z"/></g></g><g id="g5300" transform="translate(45.524 16.155) scale(.39348)"><g id="g5302"><path id="path5304" class="st0" d="M730.9 617.2c0 39.8-32.3 72-72 72s-72-32.3-72-72c0-39.8 32.3-72 72-72s72 32.2 72 72z"/></g></g><g id="g5336" transform="translate(45.524 16.155) scale(.39348)"><g id="g5338"><path id="path5340" class="st0" d="M586.8 617.2c0 39.8-32.3 72-72 72-39.8 0-72-32.3-72-72 0-39.8 32.3-72 72-72s72 32.2 72 72z"/></g></g><g id="g5408" transform="translate(45.524 16.155) scale(.39348)"><g id="g5410"><path id="path5412" class="st0" d="M478.7 679.6c22.3-12.9 36-36.7 36-62.4s-13.7-49.5-36-62.4c-22.3-12.9-49.8-12.9-72 0"/></g></g><g id="g5438" transform="translate(45.524 16.155) scale(.39348)"><g id="g5440"><path id="path5442" class="st0" d="M766.9 554.8c-34.5-19.9-78.5-8.1-98.4 26.4-19.9 34.5-8.1 78.5 26.4 98.4"/></g></g><g id="g5498" transform="translate(45.524 16.155) scale(.39348)"><g id="g5500"><path id="path5502" class="st0" d="M442.7 617.2a72.1 72.1 0 00-36-62.4"/></g></g><g id="g5534" transform="translate(45.524 16.155) scale(.39348)"><g id="g5536"><path id="path5538" class="st0" d="M766.9 554.8a72.1 72.1 0 00-36 62.4"/></g></g><g id="g5414" transform="translate(45.524 16.155) scale(.39348)"><g id="g5416"><path id="path5418" class="st0" d="M550.8 679.6a72.1 72.1 0 00-36-62.4c-22.3-12.9-49.8-12.9-72 0"/></g></g><g id="g5420" transform="translate(45.524 16.155) scale(.39348)"><g id="g5422"><path id="path5424" class="st0" d="M622.8 679.6c0-39.8-32.3-72-72-72s-72 32.3-72 72"/></g></g><g id="g5426" transform="translate(45.524 16.155) scale(.39348)"><g id="g5428"><path id="path5430" class="st0" d="M694.8 679.6c0-39.8-32.3-72-72-72-39.8 0-72 32.3-72 72"/></g></g><g id="g5432" transform="translate(45.524 16.155) scale(.39348)"><g id="g5434"><path id="path5436" class="st0" d="M730.9 617.2c-22.3-12.9-49.8-12.9-72 0s-36 36.7-36 62.4"/></g></g><g id="g5504" transform="translate(45.524 16.155) scale(.39348)"><g id="g5506"><path id="path5508" class="st0" d="M478.7 679.6a72.1 72.1 0 00-36-62.4"/></g></g><g id="g5528" transform="translate(45.524 16.155) scale(.39348)"><g id="g5530"><path id="path5532" class="st0" d="M730.9 617.2a72.1 72.1 0 00-36 62.4"/></g></g><g id="g5510" transform="translate(45.524 16.155) scale(.39348)"><g id="g5512"><path id="path5514" class="st0" d="M550.8 679.6c-22.3-12.9-49.8-12.9-72 0"/></g></g><g id="g5516" transform="translate(45.524 16.155) scale(.39348)"><g id="g5518"><path id="path5520" class="st0" d="M622.8 679.6c-22.3-12.9-49.8-12.9-72 0"/></g></g><g id="g5522" transform="translate(45.524 16.155) scale(.39348)"><g id="g5524"><path id="path5526" class="st0" d="M694.8 679.6c-22.3-12.9-49.8-12.9-72 0"/></g></g><g id="g3558" transform="matrix(.0763 .3986 -.3986 .0763 427.92 -61.552)"><g id="g3560"><path id="path3562" class="st0" d="M802.9 492.4c0 119.4-96.8 216.1-216.1 216.1-119.4 0-216.1-96.8-216.1-216.1 0-119.4 96.8-216.1 216.1-216.1s216.1 96.8 216.1 216.1z"/></g></g></g></g></svg>