<?xml version="1.0" encoding="utf-8"?>
<!-- Generator: Adobe Illustrator 25.2.1, SVG Export Plug-In . SVG Version: 6.00 Build 0)  -->
<svg version="1.1"
	 id="flower" inkscape:export-filename="Z:\enon\Graphics\Inkscape\Sacred\Flower_of_life_base_01.png" inkscape:export-xdpi="357.88919" inkscape:export-ydpi="357.88919" inkscape:version="0.48.1 r9760" sodipodi:docname="Flower_of_life_base_01.svg" xmlns:cc="http://creativecommons.org/ns#" xmlns:dc="http://purl.org/dc/elements/1.1/" xmlns:inkscape="http://www.inkscape.org/namespaces/inkscape" xmlns:rdf="http://www.w3.org/1999/02/22-rdf-syntax-ns#" xmlns:sodipodi="http://sodipodi.sourceforge.net/DTD/sodipodi-0.dtd" xmlns:svg="http://www.w3.org/2000/svg"
	 xmlns="http://www.w3.org/2000/svg" xmlns:xlink="http://www.w3.org/1999/xlink" x="0px" y="0px" viewBox="0 0 201.2 199.1"
	 style="enable-background:new 0 0 201.2 199.1;" xml:space="preserve">
<style type="text/css">
	.st0{fill:none;stroke:#FFFFFF;stroke-width:0.5;stroke-miterlimit:10;}
</style>
<g id="layer1" transform="translate(-175.82189,-110.34128)" inkscape:groupmode="layer" inkscape:label="Paths">
	<g id="g3739" transform="matrix(0.8660254,0.5,-0.5,0.8660254,141.98888,-110.08277)">
		<g id="g5342" transform="matrix(0.39348297,0,0,0.39348297,45.52446,16.155044)">
			<g id="g5344">
				<path id="path5346" inkscape:connector-curvature="0" class="st0" d="M802.9,492.4c0,119.4-96.8,216.1-216.1,216.1
					c-119.4,0-216.1-96.8-216.1-216.1s96.8-216.1,216.1-216.1C706.1,276.3,802.9,373.1,802.9,492.4L802.9,492.4z"/>
			</g>
		</g>
		<g id="g5366" transform="matrix(0.39348297,0,0,0.39348297,45.52446,16.155044)">
			<g id="g5368">
				<path id="path5370" inkscape:connector-curvature="0" class="st0" d="M622.8,305.3c0,25.7,13.7,49.5,36,62.4
					c22.3,12.9,49.8,12.9,72,0"/>
			</g>
		</g>
		<g id="g5372" transform="matrix(0.39348297,0,0,0.39348297,45.52446,16.155044)">
			<g id="g5374">
				<path id="path5376" inkscape:connector-curvature="0" class="st0" d="M550.8,305.3c0,39.8,32.3,72,72,72c39.8,0,72-32.3,72-72"
					/>
			</g>
		</g>
		<g id="g5378" transform="matrix(0.39348297,0,0,0.39348297,45.52446,16.155044)">
			<g id="g5380">
				<path id="path5382" inkscape:connector-curvature="0" class="st0" d="M478.7,305.3c0,25.7,13.7,49.5,36,62.4
					c22.3,12.9,49.8,12.9,72,0c22.3-12.9,36-36.7,36-62.4"/>
			</g>
		</g>
		<g id="g5384" transform="matrix(0.39348297,0,0,0.39348297,45.52446,16.155044)">
			<g id="g5386">
				<path id="path5388" inkscape:connector-curvature="0" class="st0" d="M442.7,367.6c22.3,12.9,49.8,12.9,72,0
					c22.3-12.9,36-36.7,36-62.4"/>
			</g>
		</g>
		<g id="g5456" transform="matrix(0.39348297,0,0,0.39348297,45.52446,16.155044)">
			<g id="g5458">
				<path id="path5460" inkscape:connector-curvature="0" class="st0" d="M622.8,305.3c22.3,12.9,49.8,12.9,72,0"/>
			</g>
		</g>
		<g id="g5462" transform="matrix(0.39348297,0,0,0.39348297,45.52446,16.155044)">
			<g id="g5464">
				<path id="path5466" inkscape:connector-curvature="0" class="st0" d="M550.8,305.3c22.3,12.9,49.8,12.9,72,0"/>
			</g>
		</g>
		<g id="g5468" transform="matrix(0.39348297,0,0,0.39348297,45.52446,16.155044)">
			<g id="g5470">
				<path id="path5472" inkscape:connector-curvature="0" class="st0" d="M478.7,305.3c22.3,12.9,49.8,12.9,72,0"/>
			</g>
		</g>
		<g id="g5474" transform="matrix(0.39348297,0,0,0.39348297,45.52446,16.155044)">
			<g id="g5476">
				<path id="path5478" inkscape:connector-curvature="0" class="st0" d="M442.7,367.6c22.3-12.9,36-36.7,36-62.4"/>
			</g>
		</g>
		<g id="g5558" transform="matrix(0.39348297,0,0,0.39348297,45.52446,16.155044)">
			<g id="g5560">
				<path id="path5562" inkscape:connector-curvature="0" class="st0" d="M694.8,305.3c0,25.7,13.7,49.5,36,62.4"/>
			</g>
		</g>
		<g id="g5282" transform="matrix(0.39348297,0,0,0.39348297,45.52446,16.155044)">
			<g id="g5284">
				<path id="path5286" inkscape:connector-curvature="0" class="st0" d="M658.8,367.6c0,39.8-32.3,72-72,72s-72-32.3-72-72
					c0-39.8,32.3-72,72-72C626.6,295.6,658.8,327.9,658.8,367.6z"/>
			</g>
		</g>
		<g id="g5288" transform="matrix(0.39348297,0,0,0.39348297,45.52446,16.155044)">
			<g id="g5290">
				<path id="path5292" inkscape:connector-curvature="0" class="st0" d="M730.9,367.6c0,39.8-32.3,72-72,72c-39.8,0-72-32.3-72-72
					s32.3-72,72-72C698.6,295.6,730.9,327.9,730.9,367.6z"/>
			</g>
		</g>
		<g id="g5330" transform="matrix(0.39348297,0,0,0.39348297,45.52446,16.155044)">
			<g id="g5332">
				<path id="path5334" inkscape:connector-curvature="0" class="st0" d="M586.8,367.6c0,39.8-32.3,72-72,72c-39.8,0-72-32.3-72-72
					s32.3-72,72-72S586.8,327.9,586.8,367.6z"/>
			</g>
		</g>
		<g id="g5360" transform="matrix(0.39348297,0,0,0.39348297,45.52446,16.155044)">
			<g id="g5362">
				<path id="path5364" inkscape:connector-curvature="0" class="st0" d="M694.8,305.3c-22.3,12.9-36,36.7-36,62.4
					s13.7,49.5,36,62.4c22.3,12.9,49.8,12.9,72,0"/>
			</g>
		</g>
		<g id="g5390" transform="matrix(0.39348297,0,0,0.39348297,45.52446,16.155044)">
			<g id="g5392">
				<path id="path5394" inkscape:connector-curvature="0" class="st0" d="M406.7,430c22.3,12.9,49.8,12.9,72,0
					c22.3-12.9,36-36.7,36-62.4c0-25.7-13.7-49.5-36-62.4"/>
			</g>
		</g>
		<g id="g5246" transform="matrix(0.39348297,0,0,0.39348297,45.52446,16.155044)">
			<g id="g5248">
				<path id="path5250" inkscape:connector-curvature="0" class="st0" d="M694.8,430c0,39.8-32.3,72-72,72c-39.8,0-72-32.3-72-72
					s32.3-72,72-72S694.8,390.2,694.8,430z"/>
			</g>
		</g>
		<g id="g5252" transform="matrix(0.39348297,0,0,0.39348297,45.52446,16.155044)">
			<g id="g5254">
				<path id="path5256" inkscape:connector-curvature="0" class="st0" d="M766.9,430c0,39.8-32.3,72-72,72s-72-32.3-72-72
					s32.3-72,72-72C734.6,358,766.9,390.2,766.9,430z"/>
			</g>
		</g>
		<g id="g5258" transform="matrix(0.39348297,0,0,0.39348297,45.52446,16.155044)">
			<g id="g5260">
				<path id="path5262" inkscape:connector-curvature="0" class="st0" d="M622.8,430c0,39.8-32.3,72-72,72s-72-32.3-72-72
					s32.3-72,72-72C590.5,358,622.8,390.2,622.8,430z"/>
			</g>
		</g>
		<g id="g5312" transform="matrix(0.39348297,0,0,0.39348297,45.52446,16.155044)">
			<g id="g5314">
				<path id="path5316" inkscape:connector-curvature="0" class="st0" d="M550.8,430c0,39.8-32.3,72-72,72c-39.8,0-72-32.3-72-72
					s32.3-72,72-72S550.8,390.2,550.8,430z"/>
			</g>
		</g>
		<g id="g5396" transform="matrix(0.39348297,0,0,0.39348297,45.52446,16.155044)">
			<g id="g5398">
				<path id="path5400" inkscape:connector-curvature="0" class="st0" d="M370.7,492.4c34.5,19.9,78.5,8.1,98.4-26.4
					c19.9-34.5,8.1-78.5-26.4-98.4"/>
			</g>
		</g>
		<g id="g5452" transform="matrix(0.39348297,0,0,0.39348297,45.52446,16.155044)">
			<path id="path5454" inkscape:connector-curvature="0" class="st0" d="M730.9,367.6c-34.5,19.9-46.3,64-26.4,98.4
				c19.9,34.5,64,46.3,98.4,26.4"/>
		</g>
		<g id="g5480" transform="matrix(0.39348297,0,0,0.39348297,45.52446,16.155044)">
			<g id="g5482">
				<path id="path5484" inkscape:connector-curvature="0" class="st0" d="M406.7,430c22.3-12.9,36-36.7,36-62.4"/>
			</g>
		</g>
		<g id="g5552" transform="matrix(0.39348297,0,0,0.39348297,45.52446,16.155044)">
			<g id="g5554">
				<path id="path5556" inkscape:connector-curvature="0" class="st0" d="M730.9,367.6c0,25.7,13.7,49.5,36,62.4"/>
			</g>
		</g>
		<g id="g5228" transform="matrix(0.39348297,0,0,0.39348297,45.52446,16.155044)">
			<g id="g5230">
				<path id="path5232" inkscape:connector-curvature="0" class="st0" d="M730.9,492.4c0,39.8-32.3,72-72,72c-39.8,0-72-32.3-72-72
					s32.3-72,72-72C698.6,420.4,730.9,452.6,730.9,492.4L730.9,492.4z"/>
			</g>
		</g>
		<g id="g5234" transform="matrix(0.39348297,0,0,0.39348297,45.52446,16.155044)">
			<g id="g5236">
				<path id="path5238" inkscape:connector-curvature="0" class="st0" d="M658.8,492.4c0,39.8-32.3,72-72,72c-39.8,0-72-32.3-72-72
					s32.3-72,72-72S658.8,452.6,658.8,492.4L658.8,492.4z"/>
			</g>
		</g>
		<g id="g5276" transform="matrix(0.39348297,0,0,0.39348297,45.52446,16.155044)">
			<g id="g5278">
				<path id="path5280" inkscape:connector-curvature="0" class="st0" d="M802.9,492.4c0,39.8-32.3,72-72,72s-72-32.3-72-72
					c0-39.8,32.3-72,72-72C770.6,420.4,802.9,452.6,802.9,492.4L802.9,492.4z"/>
			</g>
		</g>
		<g id="g5306" transform="matrix(0.39348297,0,0,0.39348297,45.52446,16.155044)">
			<g id="g5308">
				<path id="path5310" inkscape:connector-curvature="0" class="st0" d="M586.8,492.4c0,39.8-32.3,72-72,72s-72-32.3-72-72
					c0-39.8,32.3-72,72-72C554.5,420.4,586.8,452.6,586.8,492.4L586.8,492.4z"/>
			</g>
		</g>
		<g id="g5324" transform="matrix(0.39348297,0,0,0.39348297,45.52446,16.155044)">
			<g id="g5326">
				<path id="path5328" inkscape:connector-curvature="0" class="st0" d="M514.7,492.4c0,39.8-32.3,72-72,72s-72-32.3-72-72
					s32.3-72,72-72C482.5,420.4,514.7,452.6,514.7,492.4L514.7,492.4z"/>
			</g>
		</g>
		<g id="g5348" transform="matrix(0.39348297,0,0,0.39348297,45.52446,16.155044)">
			<g id="g5350">
				<path id="path5352" inkscape:connector-curvature="0" class="st0" d="M406.7,554.8c22.3-12.9,36-36.7,36-62.4
					c0-25.7-13.7-49.5-36-62.4"/>
			</g>
		</g>
		<g id="g5354" transform="matrix(0.39348297,0,0,0.39348297,45.52446,16.155044)">
			<g id="g5356">
				<path id="path5358" inkscape:connector-curvature="0" class="st0" d="M766.9,430c-22.3,12.9-36,36.7-36,62.4
					c0,25.7,13.7,49.5,36,62.4"/>
			</g>
		</g>
		<g id="g5486" transform="matrix(0.39348297,0,0,0.39348297,45.52446,16.155044)">
			<g id="g5488">
				<path id="path5490" inkscape:connector-curvature="0" class="st0" d="M370.7,492.4c22.3-12.9,36-36.7,36-62.4"/>
			</g>
		</g>
		<g id="g5546" transform="matrix(0.39348297,0,0,0.39348297,45.52446,16.155044)">
			<g id="g5548">
				<path id="path5550" inkscape:connector-curvature="0" class="st0" d="M766.9,430c0,25.7,13.7,49.5,36,62.4"/>
			</g>
		</g>
		<g id="g5240" transform="matrix(0.39348297,0,0,0.39348297,45.52446,16.155044)">
			<g id="g5242">
				<path id="path5244" inkscape:connector-curvature="0" class="st0" d="M694.8,554.8c0,39.8-32.3,72-72,72s-72-32.3-72-72
					s32.3-72,72-72C662.6,482.8,694.8,515,694.8,554.8z"/>
			</g>
		</g>
		<g id="g5264" transform="matrix(0.39348297,0,0,0.39348297,45.52446,16.155044)">
			<g id="g5266">
				<path id="path5268" inkscape:connector-curvature="0" class="st0" d="M766.9,554.8c0,39.8-32.3,72-72,72c-39.8,0-72-32.3-72-72
					c0-39.8,32.3-72,72-72C734.6,482.8,766.9,515,766.9,554.8z"/>
			</g>
		</g>
		<g id="g5270" transform="matrix(0.39348297,0,0,0.39348297,45.52446,16.155044)">
			<g id="g5272">
				<path id="path5274" inkscape:connector-curvature="0" class="st0" d="M622.8,554.8c0,39.8-32.3,72-72,72s-72-32.3-72-72
					c0-39.8,32.3-72,72-72S622.8,515,622.8,554.8z"/>
			</g>
		</g>
		<g id="g5318" transform="matrix(0.39348297,0,0,0.39348297,45.52446,16.155044)">
			<g id="g5320">
				<path id="path5322" inkscape:connector-curvature="0" class="st0" d="M550.8,554.8c0,39.8-32.3,72-72,72s-72-32.3-72-72
					s32.3-72,72-72S550.8,515,550.8,554.8z"/>
			</g>
		</g>
		<g id="g5402" transform="matrix(0.39348297,0,0,0.39348297,45.52446,16.155044)">
			<g id="g5404">
				<path id="path5406" inkscape:connector-curvature="0" class="st0" d="M442.7,617.2c34.5-19.9,46.3-64,26.4-98.4
					c-19.9-34.5-64-46.3-98.4-26.4"/>
			</g>
		</g>
		<g id="g5444" transform="matrix(0.39348297,0,0,0.39348297,45.52446,16.155044)">
			<g id="g5446">
				<path id="path5448" inkscape:connector-curvature="0" class="st0" d="M802.9,492.4c-22.3-12.9-49.8-12.9-72,0
					c-22.3,12.9-36,36.7-36,62.4s13.7,49.5,36,62.4"/>
			</g>
		</g>
		<g id="g5492" transform="matrix(0.39348297,0,0,0.39348297,45.52446,16.155044)">
			<g id="g5494">
				<path id="path5496" inkscape:connector-curvature="0" class="st0" d="M406.7,554.8c0-25.7-13.7-49.5-36-62.4"/>
			</g>
		</g>
		<g id="g5540" transform="matrix(0.39348297,0,0,0.39348297,45.52446,16.155044)">
			<g id="g5542">
				<path id="path5544" inkscape:connector-curvature="0" class="st0" d="M802.9,492.4c-22.3,12.9-36,36.7-36,62.4"/>
			</g>
		</g>
		<g id="g5294" transform="matrix(0.39348297,0,0,0.39348297,45.52446,16.155044)">
			<g id="g5296">
				<path id="path5298" inkscape:connector-curvature="0" class="st0" d="M658.8,617.2c0,39.8-32.3,72-72,72s-72-32.3-72-72
					s32.3-72,72-72C626.6,545.2,658.8,577.4,658.8,617.2z"/>
			</g>
		</g>
		<g id="g5300" transform="matrix(0.39348297,0,0,0.39348297,45.52446,16.155044)">
			<g id="g5302">
				<path id="path5304" inkscape:connector-curvature="0" class="st0" d="M730.9,617.2c0,39.8-32.3,72-72,72s-72-32.3-72-72
					c0-39.8,32.3-72,72-72C698.6,545.2,730.9,577.4,730.9,617.2z"/>
			</g>
		</g>
		<g id="g5336" transform="matrix(0.39348297,0,0,0.39348297,45.52446,16.155044)">
			<g id="g5338">
				<path id="path5340" inkscape:connector-curvature="0" class="st0" d="M586.8,617.2c0,39.8-32.3,72-72,72c-39.8,0-72-32.3-72-72
					c0-39.8,32.3-72,72-72S586.8,577.4,586.8,617.2z"/>
			</g>
		</g>
		<g id="g5408" transform="matrix(0.39348297,0,0,0.39348297,45.52446,16.155044)">
			<g id="g5410">
				<path id="path5412" inkscape:connector-curvature="0" class="st0" d="M478.7,679.6c22.3-12.9,36-36.7,36-62.4
					s-13.7-49.5-36-62.4c-22.3-12.9-49.8-12.9-72,0"/>
			</g>
		</g>
		<g id="g5438" transform="matrix(0.39348297,0,0,0.39348297,45.52446,16.155044)">
			<g id="g5440">
				<path id="path5442" inkscape:connector-curvature="0" class="st0" d="M766.9,554.8c-34.5-19.9-78.5-8.1-98.4,26.4
					c-19.9,34.5-8.1,78.5,26.4,98.4"/>
			</g>
		</g>
		<g id="g5498" transform="matrix(0.39348297,0,0,0.39348297,45.52446,16.155044)">
			<g id="g5500">
				<path id="path5502" inkscape:connector-curvature="0" class="st0" d="M442.7,617.2c0-25.7-13.7-49.5-36-62.4"/>
			</g>
		</g>
		<g id="g5534" transform="matrix(0.39348297,0,0,0.39348297,45.52446,16.155044)">
			<g id="g5536">
				<path id="path5538" inkscape:connector-curvature="0" class="st0" d="M766.9,554.8c-22.3,12.9-36,36.7-36,62.4"/>
			</g>
		</g>
		<g id="g5414" transform="matrix(0.39348297,0,0,0.39348297,45.52446,16.155044)">
			<g id="g5416">
				<path id="path5418" inkscape:connector-curvature="0" class="st0" d="M550.8,679.6c0-25.7-13.7-49.5-36-62.4
					c-22.3-12.9-49.8-12.9-72,0"/>
			</g>
		</g>
		<g id="g5420" transform="matrix(0.39348297,0,0,0.39348297,45.52446,16.155044)">
			<g id="g5422">
				<path id="path5424" inkscape:connector-curvature="0" class="st0" d="M622.8,679.6c0-39.8-32.3-72-72-72s-72,32.3-72,72"/>
			</g>
		</g>
		<g id="g5426" transform="matrix(0.39348297,0,0,0.39348297,45.52446,16.155044)">
			<g id="g5428">
				<path id="path5430" inkscape:connector-curvature="0" class="st0" d="M694.8,679.6c0-39.8-32.3-72-72-72c-39.8,0-72,32.3-72,72"
					/>
			</g>
		</g>
		<g id="g5432" transform="matrix(0.39348297,0,0,0.39348297,45.52446,16.155044)">
			<g id="g5434">
				<path id="path5436" inkscape:connector-curvature="0" class="st0" d="M730.9,617.2c-22.3-12.9-49.8-12.9-72,0s-36,36.7-36,62.4"
					/>
			</g>
		</g>
		<g id="g5504" transform="matrix(0.39348297,0,0,0.39348297,45.52446,16.155044)">
			<g id="g5506">
				<path id="path5508" inkscape:connector-curvature="0" class="st0" d="M478.7,679.6c0-25.7-13.7-49.5-36-62.4"/>
			</g>
		</g>
		<g id="g5528" transform="matrix(0.39348297,0,0,0.39348297,45.52446,16.155044)">
			<g id="g5530">
				<path id="path5532" inkscape:connector-curvature="0" class="st0" d="M730.9,617.2c-22.3,12.9-36,36.7-36,62.4"/>
			</g>
		</g>
		<g id="g5510" transform="matrix(0.39348297,0,0,0.39348297,45.52446,16.155044)">
			<g id="g5512">
				<path id="path5514" inkscape:connector-curvature="0" class="st0" d="M550.8,679.6c-22.3-12.9-49.8-12.9-72,0"/>
			</g>
		</g>
		<g id="g5516" transform="matrix(0.39348297,0,0,0.39348297,45.52446,16.155044)">
			<g id="g5518">
				<path id="path5520" inkscape:connector-curvature="0" class="st0" d="M622.8,679.6c-22.3-12.9-49.8-12.9-72,0"/>
			</g>
		</g>
		<g id="g5522" transform="matrix(0.39348297,0,0,0.39348297,45.52446,16.155044)">
			<g id="g5524">
				<path id="path5526" inkscape:connector-curvature="0" class="st0" d="M694.8,679.6c-22.3-12.9-49.8-12.9-72,0"/>
			</g>
		</g>
		<g id="g3558" transform="matrix(0.07630181,0.39860536,-0.39860536,0.07630181,427.92024,-61.551893)">
			<g id="g3560">
				<path id="path3562" inkscape:connector-curvature="0" class="st0" d="M802.9,492.4c0,119.4-96.8,216.1-216.1,216.1
					c-119.4,0-216.1-96.8-216.1-216.1c0-119.4,96.8-216.1,216.1-216.1C706.1,276.3,802.9,373.1,802.9,492.4L802.9,492.4z"/>
			</g>
		</g>
	</g>
</g>
</svg>
