<?xml version="1.0" encoding="utf-8"?>
<!-- Generator: Adobe Illustrator 25.2.1, SVG Export Plug-In . SVG Version: 6.00 Build 0)  -->
<svg version="1.1" id="Layer_1" xmlns="http://www.w3.org/2000/svg" xmlns:xlink="http://www.w3.org/1999/xlink" x="0px" y="0px"
	 viewBox="0 0 612 623.6" style="enable-background:new 0 0 612 623.6;" xml:space="preserve">
<style type="text/css">
	.st0{fill:none;stroke:#FFFFFF;stroke-width:2;stroke-miterlimit:10;}
</style>
<g id="layer1" transform="translate(-175.82189,-110.34128)">
	<g id="g3739" transform="matrix(0.8660254,0.5,-0.5,0.8660254,141.98888,-110.08277)">
		<g id="g5342" transform="matrix(0.39348297,0,0,0.39348297,45.52446,16.155044)">
			<g id="g5344">
				<path id="path5346" class="st0" d="M2042.7,698.5c0,405.5-328.7,734.1-734.1,734.1c-405.5,0-734.1-328.7-734.1-734.1
					c0-405.5,328.7-734.1,734.1-734.1C1714-35.7,2042.7,293,2042.7,698.5L2042.7,698.5z"/>
			</g>
		</g>
		<g id="g5366" transform="matrix(0.39348297,0,0,0.39348297,45.52446,16.155044)">
			<g id="g5368">
				<path id="path5370" class="st0" d="M1430.9,62.7c0,87.4,46.6,168.2,122.4,211.9c75.7,43.7,169,43.7,244.7,0"/>
			</g>
		</g>
		<g id="g5372" transform="matrix(0.39348297,0,0,0.39348297,45.52446,16.155044)">
			<g id="g5374">
				<path id="path5376" class="st0" d="M1186.2,62.7c0,135.2,109.6,244.7,244.7,244.7s244.7-109.6,244.7-244.7"/>
			</g>
		</g>
		<g id="g5378" transform="matrix(0.39348297,0,0,0.39348297,45.52446,16.155044)">
			<g id="g5380">
				<path id="path5382" class="st0" d="M941.5,62.7c0,87.4,46.6,168.2,122.4,211.9c75.7,43.7,169,43.7,244.7,0
					s122.4-124.5,122.4-211.9"/>
			</g>
		</g>
		<g id="g5384" transform="matrix(0.39348297,0,0,0.39348297,45.52446,16.155044)">
			<g id="g5386">
				<path id="path5388" class="st0" d="M819.1,274.6c75.7,43.7,169,43.7,244.7,0c75.7-43.7,122.4-124.5,122.4-211.9"/>
			</g>
		</g>
		<g id="g5456" transform="matrix(0.39348297,0,0,0.39348297,45.52446,16.155044)">
			<g id="g5458">
				<path id="path5460" class="st0" d="M1430.9,62.7c75.7,43.7,169,43.7,244.7,0"/>
			</g>
		</g>
		<g id="g5462" transform="matrix(0.39348297,0,0,0.39348297,45.52446,16.155044)">
			<g id="g5464">
				<path id="path5466" class="st0" d="M1186.2,62.7c75.7,43.7,169,43.7,244.7,0"/>
			</g>
		</g>
		<g id="g5468" transform="matrix(0.39348297,0,0,0.39348297,45.52446,16.155044)">
			<g id="g5470">
				<path id="path5472" class="st0" d="M941.5,62.7c75.7,43.7,169,43.7,244.7,0"/>
			</g>
		</g>
		<g id="g5474" transform="matrix(0.39348297,0,0,0.39348297,45.52446,16.155044)">
			<g id="g5476">
				<path id="path5478" class="st0" d="M819.1,274.6c75.7-43.7,122.4-124.5,122.4-211.9"/>
			</g>
		</g>
		<g id="g5558" transform="matrix(0.39348297,0,0,0.39348297,45.52446,16.155044)">
			<g id="g5560">
				<path id="path5562" class="st0" d="M1675.6,62.7c0,87.4,46.6,168.2,122.4,211.9"/>
			</g>
		</g>
		<g id="g5282" transform="matrix(0.39348297,0,0,0.39348297,45.52446,16.155044)">
			<g id="g5284">
				<path id="path5286" class="st0" d="M1553.2,274.6c0,135.2-109.6,244.7-244.7,244.7c-135.2,0-244.7-109.6-244.7-244.7
					s109.6-244.7,244.7-244.7C1443.7,29.9,1553.2,139.5,1553.2,274.6z"/>
			</g>
		</g>
		<g id="g5288" transform="matrix(0.39348297,0,0,0.39348297,45.52446,16.155044)">
			<g id="g5290">
				<path id="path5292" class="st0" d="M1798,274.6c0,135.2-109.6,244.7-244.7,244.7c-135.2,0-244.7-109.6-244.7-244.7
					s109.6-244.7,244.7-244.7C1688.4,29.9,1798,139.5,1798,274.6z"/>
			</g>
		</g>
		<g id="g5330" transform="matrix(0.39348297,0,0,0.39348297,45.52446,16.155044)">
			<g id="g5332">
				<path id="path5334" class="st0" d="M1308.5,274.6c0,135.2-109.6,244.7-244.7,244.7c-135.2,0-244.7-109.6-244.7-244.7
					c0-135.2,109.6-244.7,244.7-244.7C1199,29.9,1308.5,139.5,1308.5,274.6z"/>
			</g>
		</g>
		<g id="g5360" transform="matrix(0.39348297,0,0,0.39348297,45.52446,16.155044)">
			<g id="g5362">
				<path id="path5364" class="st0" d="M1675.6,62.7c-75.7,43.7-122.4,124.5-122.4,211.9s46.6,168.2,122.4,211.9
					c75.7,43.7,169,43.7,244.7,0"/>
			</g>
		</g>
		<g id="g5390" transform="matrix(0.39348297,0,0,0.39348297,45.52446,16.155044)">
			<g id="g5392">
				<path id="path5394" class="st0" d="M696.8,486.5c75.7,43.7,169,43.7,244.7,0s122.4-124.5,122.4-211.9
					c0-87.4-46.6-168.2-122.4-211.9"/>
			</g>
		</g>
		<g id="g5246" transform="matrix(0.39348297,0,0,0.39348297,45.52446,16.155044)">
			<g id="g5248">
				<path id="path5250" class="st0" d="M1675.6,486.5c0,135.2-109.6,244.7-244.7,244.7c-135.2,0-244.7-109.6-244.7-244.7
					s109.6-244.7,244.7-244.7S1675.6,351.4,1675.6,486.5z"/>
			</g>
		</g>
		<g id="g5252" transform="matrix(0.39348297,0,0,0.39348297,45.52446,16.155044)">
			<g id="g5254">
				<path id="path5256" class="st0" d="M1920.3,486.5c0,135.2-109.6,244.7-244.7,244.7c-135.2,0-244.7-109.6-244.7-244.7
					c0-135.2,109.6-244.7,244.7-244.7S1920.3,351.4,1920.3,486.5z"/>
			</g>
		</g>
		<g id="g5258" transform="matrix(0.39348297,0,0,0.39348297,45.52446,16.155044)">
			<g id="g5260">
				<path id="path5262" class="st0" d="M1430.9,486.5c0,135.2-109.6,244.7-244.7,244.7c-135.2,0-244.7-109.6-244.7-244.7
					c0-135.2,109.6-244.7,244.7-244.7S1430.9,351.4,1430.9,486.5z"/>
			</g>
		</g>
		<g id="g5312" transform="matrix(0.39348297,0,0,0.39348297,45.52446,16.155044)">
			<g id="g5314">
				<path id="path5316" class="st0" d="M1186.2,486.5c0,135.2-109.6,244.7-244.7,244.7c-135.2,0-244.7-109.6-244.7-244.7
					c0-135.2,109.6-244.7,244.7-244.7S1186.2,351.4,1186.2,486.5z"/>
			</g>
		</g>
		<g id="g5396" transform="matrix(0.39348297,0,0,0.39348297,45.52446,16.155044)">
			<g id="g5398">
				<path id="path5400" class="st0" d="M574.4,698.5c117,67.6,266.7,27.5,334.3-89.6s27.5-266.7-89.6-334.3"/>
			</g>
		</g>
		<g id="g5452" transform="matrix(0.39348297,0,0,0.39348297,45.52446,16.155044)">
			<path id="path5454" class="st0" d="M1798,274.6c-117,67.6-157.1,217.2-89.6,334.3s217.2,157.1,334.3,89.6"/>
		</g>
		<g id="g5480" transform="matrix(0.39348297,0,0,0.39348297,45.52446,16.155044)">
			<g id="g5482">
				<path id="path5484" class="st0" d="M696.8,486.5c75.7-43.7,122.4-124.5,122.4-211.9"/>
			</g>
		</g>
		<g id="g5552" transform="matrix(0.39348297,0,0,0.39348297,45.52446,16.155044)">
			<g id="g5554">
				<path id="path5556" class="st0" d="M1798,274.6c0,87.4,46.6,168.2,122.4,211.9"/>
			</g>
		</g>
		<g id="g5228" transform="matrix(0.39348297,0,0,0.39348297,45.52446,16.155044)">
			<g id="g5230">
				<path id="path5232" class="st0" d="M1798,698.5c0,135.2-109.6,244.7-244.7,244.7c-135.2,0-244.7-109.6-244.7-244.7
					s109.6-244.7,244.7-244.7S1798,563.3,1798,698.5L1798,698.5z"/>
			</g>
		</g>
		<g id="g5234" transform="matrix(0.39348297,0,0,0.39348297,45.52446,16.155044)">
			<g id="g5236">
				<path id="path5238" class="st0" d="M1553.2,698.5c0,135.2-109.6,244.7-244.7,244.7c-135.2,0-244.7-109.6-244.7-244.7
					c0-135.2,109.6-244.7,244.7-244.7C1443.7,453.8,1553.2,563.3,1553.2,698.5L1553.2,698.5z"/>
			</g>
		</g>
		<g id="g5276" transform="matrix(0.39348297,0,0,0.39348297,45.52446,16.155044)">
			<g id="g5278">
				<path id="path5280" class="st0" d="M2042.7,698.5c0,135.2-109.6,244.7-244.7,244.7c-135.2,0-244.7-109.6-244.7-244.7
					s109.6-244.7,244.7-244.7C1933.1,453.8,2042.7,563.3,2042.7,698.5L2042.7,698.5z"/>
			</g>
		</g>
		<g id="g5306" transform="matrix(0.39348297,0,0,0.39348297,45.52446,16.155044)">
			<g id="g5308">
				<path id="path5310" class="st0" d="M1308.5,698.5c0,135.2-109.6,244.7-244.7,244.7c-135.2,0-244.7-109.6-244.7-244.7
					c0-135.2,109.6-244.7,244.7-244.7S1308.5,563.3,1308.5,698.5L1308.5,698.5z"/>
			</g>
		</g>
		<g id="g5324" transform="matrix(0.39348297,0,0,0.39348297,45.52446,16.155044)">
			<g id="g5326">
				<path id="path5328" class="st0" d="M1063.8,698.5c0,135.2-109.6,244.7-244.7,244.7S574.4,833.6,574.4,698.5
					c0-135.2,109.6-244.7,244.7-244.7S1063.8,563.3,1063.8,698.5L1063.8,698.5z"/>
			</g>
		</g>
		<g id="g5348" transform="matrix(0.39348297,0,0,0.39348297,45.52446,16.155044)">
			<g id="g5350">
				<path id="path5352" class="st0" d="M696.8,910.4c75.7-43.7,122.4-124.5,122.4-211.9c0-87.4-46.6-168.2-122.4-211.9"/>
			</g>
		</g>
		<g id="g5354" transform="matrix(0.39348297,0,0,0.39348297,45.52446,16.155044)">
			<g id="g5356">
				<path id="path5358" class="st0" d="M1920.3,486.5C1844.6,530.3,1798,611,1798,698.5s46.6,168.2,122.4,211.9"/>
			</g>
		</g>
		<g id="g5486" transform="matrix(0.39348297,0,0,0.39348297,45.52446,16.155044)">
			<g id="g5488">
				<path id="path5490" class="st0" d="M574.4,698.5c75.7-43.7,122.4-124.5,122.4-211.9"/>
			</g>
		</g>
		<g id="g5546" transform="matrix(0.39348297,0,0,0.39348297,45.52446,16.155044)">
			<g id="g5548">
				<path id="path5550" class="st0" d="M1920.3,486.5c0,87.4,46.6,168.2,122.4,211.9"/>
			</g>
		</g>
		<g id="g5240" transform="matrix(0.39348297,0,0,0.39348297,45.52446,16.155044)">
			<g id="g5242">
				<path id="path5244" class="st0" d="M1675.6,910.4c0,135.2-109.6,244.7-244.7,244.7s-244.7-109.6-244.7-244.7
					c0-135.2,109.6-244.7,244.7-244.7S1675.6,775.3,1675.6,910.4z"/>
			</g>
		</g>
		<g id="g5264" transform="matrix(0.39348297,0,0,0.39348297,45.52446,16.155044)">
			<g id="g5266">
				<path id="path5268" class="st0" d="M1920.3,910.4c0,135.2-109.6,244.7-244.7,244.7c-135.2,0-244.7-109.6-244.7-244.7
					s109.6-244.7,244.7-244.7C1810.8,665.7,1920.3,775.3,1920.3,910.4z"/>
			</g>
		</g>
		<g id="g5270" transform="matrix(0.39348297,0,0,0.39348297,45.52446,16.155044)">
			<g id="g5272">
				<path id="path5274" class="st0" d="M1430.9,910.4c0,135.2-109.6,244.7-244.7,244.7s-244.7-109.6-244.7-244.7
					c0-135.2,109.6-244.7,244.7-244.7C1321.3,665.7,1430.9,775.3,1430.9,910.4z"/>
			</g>
		</g>
		<g id="g5318" transform="matrix(0.39348297,0,0,0.39348297,45.52446,16.155044)">
			<g id="g5320">
				<path id="path5322" class="st0" d="M1186.2,910.4c0,135.2-109.6,244.7-244.7,244.7c-135.2,0-244.7-109.6-244.7-244.7
					c0-135.2,109.6-244.7,244.7-244.7C1076.6,665.7,1186.2,775.3,1186.2,910.4z"/>
			</g>
		</g>
		<g id="g5402" transform="matrix(0.39348297,0,0,0.39348297,45.52446,16.155044)">
			<g id="g5404">
				<path id="path5406" class="st0" d="M819.1,1122.3c117-67.6,157.1-217.2,89.6-334.3c-67.6-117-217.2-157.1-334.3-89.6"/>
			</g>
		</g>
		<g id="g5444" transform="matrix(0.39348297,0,0,0.39348297,45.52446,16.155044)">
			<g id="g5446">
				<path id="path5448" class="st0" d="M2042.7,698.5c-75.7-43.7-169-43.7-244.7,0c-75.7,43.7-122.4,124.5-122.4,211.9
					c0,87.4,46.6,168.2,122.4,211.9"/>
			</g>
		</g>
		<g id="g5492" transform="matrix(0.39348297,0,0,0.39348297,45.52446,16.155044)">
			<g id="g5494">
				<path id="path5496" class="st0" d="M696.8,910.4c0-87.4-46.6-168.2-122.4-211.9"/>
			</g>
		</g>
		<g id="g5540" transform="matrix(0.39348297,0,0,0.39348297,45.52446,16.155044)">
			<g id="g5542">
				<path id="path5544" class="st0" d="M2042.7,698.5c-75.7,43.7-122.4,124.5-122.4,211.9"/>
			</g>
		</g>
		<g id="g5294" transform="matrix(0.39348297,0,0,0.39348297,45.52446,16.155044)">
			<g id="g5296">
				<path id="path5298" class="st0" d="M1553.2,1122.3c0,135.2-109.6,244.7-244.7,244.7c-135.2,0-244.7-109.6-244.7-244.7
					s109.6-244.7,244.7-244.7C1443.7,877.6,1553.2,987.2,1553.2,1122.3z"/>
			</g>
		</g>
		<g id="g5300" transform="matrix(0.39348297,0,0,0.39348297,45.52446,16.155044)">
			<g id="g5302">
				<path id="path5304" class="st0" d="M1798,1122.3c0,135.2-109.6,244.7-244.7,244.7s-244.7-109.6-244.7-244.7
					c0-135.2,109.6-244.7,244.7-244.7C1688.4,877.6,1798,987.2,1798,1122.3z"/>
			</g>
		</g>
		<g id="g5336" transform="matrix(0.39348297,0,0,0.39348297,45.52446,16.155044)">
			<g id="g5338">
				<path id="path5340" class="st0" d="M1308.5,1122.3c0,135.2-109.6,244.7-244.7,244.7c-135.2,0-244.7-109.6-244.7-244.7
					c0-135.2,109.6-244.7,244.7-244.7C1199,877.6,1308.5,987.2,1308.5,1122.3z"/>
			</g>
		</g>
		<g id="g5408" transform="matrix(0.39348297,0,0,0.39348297,45.52446,16.155044)">
			<g id="g5410">
				<path id="path5412" class="st0" d="M941.5,1334.3c75.7-43.7,122.4-124.5,122.4-211.9c0-87.4-46.6-168.2-122.4-211.9
					c-75.7-43.7-169-43.7-244.7,0"/>
			</g>
		</g>
		<g id="g5438" transform="matrix(0.39348297,0,0,0.39348297,45.52446,16.155044)">
			<g id="g5440">
				<path id="path5442" class="st0" d="M1920.3,910.4c-117-67.6-266.7-27.5-334.3,89.6s-27.5,266.7,89.6,334.3"/>
			</g>
		</g>
		<g id="g5498" transform="matrix(0.39348297,0,0,0.39348297,45.52446,16.155044)">
			<g id="g5500">
				<path id="path5502" class="st0" d="M819.1,1122.3c0-87.4-46.6-168.2-122.4-211.9"/>
			</g>
		</g>
		<g id="g5534" transform="matrix(0.39348297,0,0,0.39348297,45.52446,16.155044)">
			<g id="g5536">
				<path id="path5538" class="st0" d="M1920.3,910.4c-75.7,43.7-122.4,124.5-122.4,211.9"/>
			</g>
		</g>
		<g id="g5414" transform="matrix(0.39348297,0,0,0.39348297,45.52446,16.155044)">
			<g id="g5416">
				<path id="path5418" class="st0" d="M1186.2,1334.3c0-87.4-46.6-168.2-122.4-211.9c-75.7-43.7-169-43.7-244.7,0"/>
			</g>
		</g>
		<g id="g5420" transform="matrix(0.39348297,0,0,0.39348297,45.52446,16.155044)">
			<g id="g5422">
				<path id="path5424" class="st0" d="M1430.9,1334.3c0-135.2-109.6-244.7-244.7-244.7s-244.7,109.6-244.7,244.7"/>
			</g>
		</g>
		<g id="g5426" transform="matrix(0.39348297,0,0,0.39348297,45.52446,16.155044)">
			<g id="g5428">
				<path id="path5430" class="st0" d="M1675.6,1334.3c0-135.2-109.6-244.7-244.7-244.7c-135.2,0-244.7,109.6-244.7,244.7"/>
			</g>
		</g>
		<g id="g5432" transform="matrix(0.39348297,0,0,0.39348297,45.52446,16.155044)">
			<g id="g5434">
				<path id="path5436" class="st0" d="M1798,1122.3c-75.7-43.7-169-43.7-244.7,0c-75.7,43.7-122.4,124.5-122.4,211.9"/>
			</g>
		</g>
		<g id="g5504" transform="matrix(0.39348297,0,0,0.39348297,45.52446,16.155044)">
			<g id="g5506">
				<path id="path5508" class="st0" d="M941.5,1334.3c0-87.4-46.6-168.2-122.4-211.9"/>
			</g>
		</g>
		<g id="g5528" transform="matrix(0.39348297,0,0,0.39348297,45.52446,16.155044)">
			<g id="g5530">
				<path id="path5532" class="st0" d="M1798,1122.3c-75.7,43.7-122.4,124.5-122.4,211.9"/>
			</g>
		</g>
		<g id="g5510" transform="matrix(0.39348297,0,0,0.39348297,45.52446,16.155044)">
			<g id="g5512">
				<path id="path5514" class="st0" d="M1186.2,1334.3c-75.7-43.7-169-43.7-244.7,0"/>
			</g>
		</g>
		<g id="g5516" transform="matrix(0.39348297,0,0,0.39348297,45.52446,16.155044)">
			<g id="g5518">
				<path id="path5520" class="st0" d="M1430.9,1334.3c-75.7-43.7-169-43.7-244.7,0"/>
			</g>
		</g>
		<g id="g5522" transform="matrix(0.39348297,0,0,0.39348297,45.52446,16.155044)">
			<g id="g5524">
				<path id="path5526" class="st0" d="M1675.6,1334.3c-75.7-43.7-169-43.7-244.7,0"/>
			</g>
		</g>
		<g id="g3558" transform="matrix(0.07630181,0.39860536,-0.39860536,0.07630181,427.92024,-61.551893)">
			<g id="g3560">
				<path id="path3562" class="st0" d="M1648.7-157.3c0,405.5-328.7,734.1-734.1,734.1c-405.5,0-734.1-328.7-734.1-734.1
					s328.7-734.1,734.1-734.1C1320-891.5,1648.7-562.8,1648.7-157.3L1648.7-157.3z"/>
			</g>
		</g>
	</g>
</g>
</svg>
