<svg id="outerlooper-logo" xmlns="http://www.w3.org/2000/svg" viewBox="0 0 125.26 15.34"><defs><style>.cls-1{fill:#231f20}</style></defs><path id="logo-O1" class="cls-1" d="M13.27 11.91a7 7 0 01-1.42 4.66 4.92 4.92 0 01-3.95 1.66A5 5 0 014 16.59 6.9 6.9 0 012.5 12V9.43a7.34 7.34 0 011.42-4.81 4.86 4.86 0 014-1.73 4.89 4.89 0 013.93 1.7 7.25 7.25 0 011.46 4.76zm-3-2.51a6.18 6.18 0 00-.57-3 1.92 1.92 0 00-1.79-1 1.92 1.92 0 00-1.77.94 6 6 0 00-.6 2.89v2.66a5.53 5.53 0 00.59 2.88 2 2 0 001.8.93 1.94 1.94 0 001.76-.91 5.48 5.48 0 00.55-2.79z" transform="translate(-2.5 -2.89)"/><path id="logo-U" class="cls-1" d="M25.14 3.1v10.33A4.83 4.83 0 0123.86 17a5 5 0 01-3.62 1.23A5 5 0 0116.57 17a4.87 4.87 0 01-1.26-3.62V3.1h3v10.27a3.11 3.11 0 00.41 1.82 1.76 1.76 0 001.49.54 1.71 1.71 0 001.47-.54 3 3 0 00.41-1.77V3.1z" transform="translate(-2.5 -2.89)"/><path id="logo-T" class="cls-1" d="M37.1 5.61h-3.7V18h-3V5.61h-3.65V3.1H37.1z" transform="translate(-2.5 -2.89)"/><path id="logo-E1" class="cls-1" d="M46.54 11.57h-4.7v4h5.56V18h-8.57V3.1h8.55v2.51h-5.54v3.53h4.7z" transform="translate(-2.5 -2.89)"/><path id="logo-R1" class="cls-1" d="M53.66 12.57h-1.5V18h-3V3.1H54a4.89 4.89 0 013.5 1.17 4.38 4.38 0 011.24 3.34 4.34 4.34 0 01-2.16 4.16l2.61 6.11V18H55.9zm-1.5-2.51h1.71a1.58 1.58 0 001.35-.6 2.54 2.54 0 00.46-1.6c0-1.5-.59-2.25-1.76-2.25h-1.76z" transform="translate(-2.5 -2.89)"/><path id="logo-L" class="cls-1" d="M63.78 15.53h5.29V18h-8.31V3.1h3z" transform="translate(-2.5 -2.89)"/><path id="logo-O2" class="cls-1" d="M80.66 11.91a6.94 6.94 0 01-1.42 4.66 4.89 4.89 0 01-3.94 1.66 5 5 0 01-4-1.64A6.9 6.9 0 0169.9 12V9.43a7.34 7.34 0 011.42-4.81 5.39 5.39 0 017.89 0 7.2 7.2 0 011.45 4.76zm-3-2.51a6.18 6.18 0 00-.57-3 2.13 2.13 0 00-3.56 0 5.85 5.85 0 00-.6 2.89v2.66a5.53 5.53 0 00.59 2.88 2 2 0 001.8.93 1.94 1.94 0 001.76-.91 5.48 5.48 0 00.56-2.85z" transform="translate(-2.5 -2.89)"/><path id="logo-O3" class="cls-1" d="M93.34 11.91a7 7 0 01-1.42 4.66A4.9 4.9 0 0188 18.23a5 5 0 01-4-1.64A6.9 6.9 0 0182.57 12V9.43A7.34 7.34 0 0184 4.62a5.38 5.38 0 017.88 0 7.25 7.25 0 011.46 4.76zm-3-2.51a6.18 6.18 0 00-.57-3 2.13 2.13 0 00-3.56 0 5.86 5.86 0 00-.59 2.89v2.66a5.54 5.54 0 00.58 2.88 2 2 0 001.81.93 1.92 1.92 0 001.75-.91 5.38 5.38 0 00.55-2.85z" transform="translate(-2.5 -2.89)"/><path id="logo-P" class="cls-1" d="M98.52 12.78V18h-3V3.1h5.09a4.69 4.69 0 013.53 1.37 5 5 0 011.3 3.53 4.67 4.67 0 01-1.3 3.47 5 5 0 01-3.61 1.27zm0-2.51h2.07a1.63 1.63 0 001.33-.57 2.45 2.45 0 00.47-1.64 3 3 0 00-.48-1.78 1.55 1.55 0 00-1.29-.67h-2.1z" transform="translate(-2.5 -2.89)"/><path id="logo-E2" class="cls-1" d="M115.16 11.57h-4.7v4H116V18h-8.57V3.1H116v2.51h-5.54v3.53h4.7z" transform="translate(-2.5 -2.89)"/><path id="logo-R2" class="cls-1" d="M122.27 12.57h-1.49V18h-3V3.1h4.81a4.89 4.89 0 013.5 1.17 4.38 4.38 0 011.24 3.34 4.34 4.34 0 01-2.16 4.16l2.61 6.11V18h-3.24zm-1.49-2.51h1.71a1.58 1.58 0 001.35-.6 2.6 2.6 0 00.45-1.6c0-1.5-.58-2.25-1.75-2.25h-1.76z" transform="translate(-2.5 -2.89)"/></svg>